<svg width="15" height="16" viewBox="0 0 15 16" fill="none" xmlns="http://www.w3.org/2000/svg">
<path d="M14.3238 9.52865C14.3238 7.56724 14.3242 5.60582 14.3234 3.64441C14.3231 2.86872 13.9935 2.27585 13.3225 1.88074C13.0416 1.71512 12.7327 1.63671 12.4058 1.6348C12.144 1.63327 11.8823 1.63442 11.6037 1.63442C11.6037 1.43973 11.611 1.25957 11.6022 1.0798C11.5861 0.765779 11.3419 0.538961 11.0415 0.547376C10.7456 0.555791 10.523 0.789493 10.5172 1.09931C10.5149 1.22324 10.5169 1.34755 10.5165 1.47147C10.5165 1.51852 10.5165 1.56557 10.5165 1.62332C8.33823 1.62332 6.16994 1.62332 3.98211 1.62332C3.98211 1.46306 3.98287 1.3028 3.98211 1.14215C3.98019 0.791023 3.75984 0.548524 3.44253 0.547376C3.12675 0.546229 2.89796 0.791406 2.89413 1.13756C2.8926 1.29821 2.89375 1.45924 2.89375 1.63442C2.63507 1.63442 2.39249 1.63365 2.14991 1.63442C1.17 1.63748 0.386305 2.28427 0.206189 3.24585C0.179363 3.39005 0.176297 3.54037 0.175914 3.68763C0.174381 6.84203 0.174764 9.99644 0.175147 13.1512C0.175147 14.2379 0.777194 14.97 1.84716 15.188C1.86019 15.1907 1.8713 15.2014 1.88318 15.2086C5.46059 15.2086 9.038 15.2086 12.6154 15.2086C12.707 15.1857 12.799 15.1643 12.8898 15.1394C13.7559 14.9 14.3204 14.1438 14.3231 13.2086C14.3261 11.9816 14.3238 10.7553 14.3238 9.52865ZM1.26236 3.64288C1.26504 3.07717 1.62144 2.72222 2.18478 2.72107C2.41357 2.72069 2.64274 2.72107 2.89413 2.72107C2.89413 2.90352 2.88915 3.07794 2.89528 3.25197C2.90793 3.63331 3.23903 3.88346 3.59237 3.7821C3.81387 3.71861 3.97329 3.52048 3.98019 3.28678C3.98556 3.10624 3.98134 2.92532 3.98134 2.72719C6.16534 2.72719 8.3298 2.72719 10.518 2.72719C10.518 2.91194 10.5138 3.0963 10.5192 3.27989C10.5261 3.50709 10.6418 3.66812 10.8476 3.75839C11.0564 3.85019 11.2511 3.80926 11.4213 3.66353C11.5527 3.55108 11.6045 3.39961 11.6052 3.2294C11.606 3.06723 11.6052 2.90543 11.6052 2.70233C11.9582 2.72299 12.3115 2.70233 12.6445 2.77424C12.9825 2.84691 13.2014 3.11542 13.2175 3.4654C13.2435 4.02154 13.2243 4.5796 13.2243 5.14874C9.24609 5.14874 5.2663 5.14874 1.26926 5.14874C1.26696 5.10744 1.26197 5.06192 1.26197 5.01679C1.26159 4.55933 1.26006 4.1011 1.26236 3.64288ZM13.237 6.42244C13.237 8.67417 13.2374 10.9263 13.2366 13.178C13.2366 13.6718 12.9749 14.0168 12.5334 14.1055C12.464 14.1197 12.3908 14.1208 12.3196 14.1208C8.93951 14.1216 5.55946 14.1216 2.17942 14.1212C1.63179 14.1212 1.26389 13.7659 1.26312 13.222C1.26006 10.9366 1.26197 8.6516 1.26197 6.36621C1.26197 6.33332 1.26619 6.30081 1.26926 6.25835C5.2548 6.25835 9.23459 6.25835 13.2366 6.25835C13.237 6.31955 13.237 6.37119 13.237 6.42244Z" fill="white"/>
</svg>
