<svg width="36" height="35" viewBox="0 0 36 35" fill="none" xmlns="http://www.w3.org/2000/svg">
<path d="M31.5833 34.6526C33.5336 33.8617 34.6825 32.376 35.0833 30.11C35.0993 30.0245 35.1153 29.939 35.1367 29.8588L35.1474 29.8054V15.8035C35.1153 15.6806 35.0886 15.5523 35.0565 15.4294C34.9817 15.1195 34.9176 14.8255 34.8214 14.5423C34.5542 13.7246 34.0787 13.0031 33.4107 12.3993L30.4237 9.68972C27.4527 6.99089 24.4817 4.29205 21.5107 1.58787C20.3138 0.497648 19.01 -0.0207422 17.5512 0.000634709C16.1993 0.0220116 14.997 0.502992 13.9764 1.4222C10.0917 4.9387 6.03058 8.62088 1.91608 12.3725C0.74585 13.4414 0.152721 14.7988 0.147377 16.4181C0.147377 20.7362 0.147377 25.0544 0.147377 29.3725C0.147377 32.2477 2.0657 34.4923 4.91379 34.9519C4.98325 34.9626 5.04203 34.984 5.09013 35H30.2901C30.4237 34.9679 30.5573 34.9359 30.6909 34.9038C31.0115 34.8343 31.3107 34.7649 31.5833 34.6526ZM29.371 32.5149C27.6878 32.5149 25.9993 32.5149 24.3161 32.5149C23.1939 32.5149 22.0718 32.5149 20.9497 32.5149H5.89165C4.00539 32.5149 2.78173 31.2964 2.78173 29.4099V28.3518C2.78173 24.4772 2.78173 20.6026 2.78707 16.7334C2.78707 16.3807 2.81379 16.0387 2.86722 15.7127C2.97944 15.0179 3.40158 14.5637 3.75959 14.243C5.8489 12.3618 7.93287 10.47 10.0115 8.57812L13.1749 5.70293C13.971 4.98146 14.7672 4.25464 15.5688 3.53317C16.568 2.63 18.3474 2.38416 19.5924 3.53317C21.9008 5.66017 24.2626 7.80856 26.5497 9.88212C28.1153 11.3037 29.681 12.7252 31.2413 14.1468C31.952 14.7935 32.326 15.6272 32.326 16.5517C32.3313 20.9073 32.3313 25.2628 32.326 29.6184C32.3153 31.2964 31.0756 32.5149 29.371 32.5149Z" fill="#87AAE4"/>
</svg>
