<svg width="36" height="35" viewBox="0 0 36 35" fill="none" xmlns="http://www.w3.org/2000/svg">
<path d="M31.5833 34.6526C33.5337 33.8617 34.6825 32.376 35.0833 30.11C35.0993 30.0245 35.1153 29.939 35.1367 29.8588L35.1474 29.8054V15.8035C35.1153 15.6806 35.0886 15.5523 35.0566 15.4294C34.9818 15.1195 34.9176 14.8255 34.8214 14.5423C34.5543 13.7246 34.0787 13.0031 33.4108 12.3993L30.4237 9.68972C27.4527 6.99089 24.4818 4.29205 21.5108 1.58787C20.3138 0.497648 19.01 -0.0207422 17.5512 0.000634709C16.1993 0.0220116 14.997 0.502992 13.9764 1.4222C10.0917 4.9387 6.03061 8.62088 1.9161 12.3725C0.745873 13.4414 0.152743 14.7988 0.1474 16.4181C0.1474 20.7362 0.1474 25.0544 0.1474 29.3725C0.1474 32.2477 2.06572 34.4923 4.91381 34.9519C4.98328 34.9626 5.04206 34.984 5.09015 35H30.2901C30.4237 34.9679 30.5573 34.9359 30.6909 34.9038C31.0115 34.8343 31.3108 34.7649 31.5833 34.6526ZM29.3711 32.5149C27.6879 32.5149 25.9993 32.5149 24.3161 32.5149C23.194 32.5149 22.0718 32.5149 20.9497 32.5149H5.89167C4.00542 32.5149 2.78175 31.2964 2.78175 29.4099V28.3518C2.78175 24.4772 2.78175 20.6026 2.78709 16.7334C2.78709 16.3807 2.81381 16.0387 2.86725 15.7127C2.97946 15.0179 3.4016 14.5637 3.75961 14.243C5.84893 12.3618 7.9329 10.47 10.0115 8.57812L13.1749 5.70293C13.9711 4.98146 14.7672 4.25464 15.5688 3.53317C16.568 2.63 18.3474 2.38416 19.5924 3.53317C21.9008 5.66017 24.2627 7.80856 26.5497 9.88212C28.1153 11.3037 29.681 12.7252 31.2413 14.1468C31.952 14.7935 32.326 15.6272 32.326 16.5517C32.3314 20.9073 32.3314 25.2628 32.326 29.6184C32.3153 31.2964 31.0756 32.5149 29.3711 32.5149Z" fill="#B5B5B5"/>
</svg>
