<svg width="38" height="35" viewBox="0 0 38 35" fill="none" xmlns="http://www.w3.org/2000/svg">
<path d="M37.1288 26.5184C36.9125 23.4437 35.2881 6.41398 35.0983 5.62289C34.3019 2.30555 31.3854 0.0166378 27.9731 0.00608988C22.0135 -0.0044581 16.0486 0.000815888 10.089 0.00608988C9.75677 0.00608988 9.42451 0.0430078 9.09225 0.0799257C5.76437 0.470201 2.93224 3.46583 2.76874 6.80426C2.66854 8.89803 0.949217 25.606 0.959765 27.2251C0.986135 31.2756 4.27183 34.5454 8.31698 34.556C14.8303 34.5718 23.4586 34.5718 29.972 34.5454C30.6892 34.5402 31.4329 34.3978 32.1238 34.1868C34.6236 33.4326 37.4136 30.5583 37.1288 26.5184ZM30.9687 31.9717C30.6207 32.0561 30.2568 32.0878 29.8981 32.0878C23.4322 32.093 14.862 32.0983 8.39609 32.093C5.51122 32.0878 3.30669 29.7514 3.42272 26.856C3.55457 23.6336 5.08402 10.4011 5.23169 7.01522C5.33717 4.54172 7.51533 2.49541 10.0627 2.47959C13.0688 2.46377 16.075 2.47432 19.0865 2.47432C22.0663 2.47432 25.0513 2.46377 28.0311 2.47959C30.204 2.49014 31.9603 3.67151 32.6617 5.61234C32.841 6.11337 34.6922 24.5934 34.766 26.761C34.8451 29.224 33.2366 31.4338 30.9687 31.9717Z" fill="#B5B5B5"/>
<path d="M26.4437 4.94257C25.6895 4.94257 25.2412 5.41723 25.199 6.20833C25.1674 6.71991 25.1252 7.23676 25.0039 7.73251C24.2602 10.7123 21.5019 12.632 18.4325 12.3103C15.1942 11.9675 12.9317 9.47293 12.8684 6.27162C12.8526 5.41196 12.3938 4.93202 11.6132 4.9373C10.8379 4.94785 10.3949 5.44888 10.4002 6.30854C10.4371 11.0182 14.2766 14.8049 19.0232 14.8313C19.366 14.8049 19.7141 14.7786 20.0569 14.7469C24.3657 14.2934 27.6989 10.5541 27.6725 6.21888C27.6672 5.43305 27.1978 4.94257 26.4437 4.94257Z" fill="#B5B5B5"/>
</svg>
