<svg width="32" height="35" viewBox="0 0 32 35" fill="none" xmlns="http://www.w3.org/2000/svg">
<path d="M15.9936 18.1478C15.9989 18.1478 16.0042 18.1478 16.0095 18.1478C21.0039 18.1372 25.0702 14.0657 25.0702 9.07126C25.0702 4.07679 21.0039 0.00527399 16.0042 0C15.9989 0 15.9989 0 15.9936 0C11.0045 0 6.93293 4.06097 6.92239 9.05544C6.91711 11.4762 7.86115 13.7598 9.58575 15.4844C11.3051 17.1985 13.5782 18.1478 15.9936 18.1478ZM9.66486 9.07653C9.66486 5.58515 12.5023 2.74247 15.9936 2.74247C19.485 2.74247 22.3224 5.57988 22.3224 9.07126C22.3224 12.5626 19.485 15.4053 15.9936 15.4053C12.5075 15.4 9.67013 12.5626 9.66486 9.07653Z" fill="#87AAE4"/>
<path d="M27.7757 24.5135C24.6745 21.5179 20.7982 19.9568 16.252 19.8671H16.2362C14.4852 19.8882 13.1192 20.0464 11.7902 20.3787C7.81361 21.3808 4.68086 23.464 2.48161 26.5598C1.1051 28.4954 0.324552 30.6524 0.155785 32.973C0.139963 33.1628 0.145237 33.4476 0.240168 33.7166C0.419484 34.2124 0.925787 34.5552 1.46901 34.5552C1.50065 34.5552 1.53757 34.5552 1.56921 34.5499C2.17572 34.5024 2.66093 34.0805 2.77168 33.5004C2.81915 33.2736 2.84552 33.0415 2.87189 32.8095C2.89298 32.6144 2.91408 32.4192 2.951 32.2241C3.54168 29.123 5.23463 26.6653 7.98238 24.9302C12.576 22.0295 17.407 21.7183 22.3329 24.0019C26.4097 25.89 28.7091 28.9858 29.1627 33.205C29.2524 34.0489 29.8694 34.5815 30.6552 34.5024C31.42 34.4286 31.9105 33.7957 31.8472 32.9677C31.5887 29.7189 30.2175 26.871 27.7757 24.5135Z" fill="#87AAE4"/>
</svg>
